<svg width="21" height="21" viewBox="0 0 21 21" fill="none" xmlns="http://www.w3.org/2000/svg">
<g clip-path="url(#clip0)">
<rect width="20.0429" height="20" transform="translate(0.477539 0.079834)" fill="white"/>
<path d="M7.24405 6.52154H11.4229V7.6962H7.24405V6.52154ZM7.24405 11.6934V11.2669H8.34159C8.70311 11.0582 9.08437 10.7703 9.49457 10.3711C9.61874 10.2489 9.73128 10.15 9.84641 10.0457H7.24405V8.91792H11.4229V8.92893C11.7463 8.77837 12.0329 8.69519 12.3092 8.63067V3.41448C12.3092 3.3972 12.3147 3.37905 12.3147 3.36177V3.29134C12.3202 1.67005 13.1911 1.92884 13.1911 1.92884C13.7049 1.98747 13.8226 2.78033 13.8483 3.23274C13.8752 3.52069 14.0559 3.54393 14.0559 3.54393H14.454C14.6071 3.54393 14.6405 3.41451 14.6405 3.31457C14.6353 3.27932 14.6353 3.24427 14.6295 3.20331V3.19704C14.5931 2.86265 14.5299 2.35133 14.4445 2.07557C14.3913 1.92888 14.3217 1.79946 14.2473 1.69363C14.2317 1.67008 14.2158 1.64685 14.1995 1.62316C14.179 1.59996 14.1624 1.57641 14.1413 1.55861C14.0981 1.51151 14.0565 1.47054 14.0139 1.43515C13.9701 1.39432 13.9233 1.35893 13.8758 1.32389C13.8758 1.31828 13.8706 1.31828 13.8706 1.31828C13.7806 1.25937 13.6908 1.21206 13.5892 1.17127C13.4458 1.11233 13.3184 1.08895 13.2235 1.07098C13.1644 1.06541 13.1121 1.05945 13.0526 1.05945C13.0481 1.05945 13.0428 1.05945 13.0428 1.05945H13.0171C12.14 1.05945 11.4241 1.85217 11.4241 2.82168V5.3002H7.24401V3.41448C7.24401 3.3972 7.24968 3.37905 7.24968 3.36177V3.29134C7.24968 1.67005 8.12579 1.92884 8.12579 1.92884C8.63566 1.98747 8.75756 2.78033 8.78436 3.23274C8.811 3.52069 8.9915 3.54393 8.9915 3.54393H9.38945C9.54347 3.54393 9.5755 3.41451 9.5755 3.31457C9.57015 3.27932 9.57015 3.24427 9.56508 3.20331V3.19704C9.52773 2.86265 9.46449 2.35133 9.3789 2.07557C9.32574 1.92888 9.25687 1.79946 9.18183 1.69363C9.16653 1.67008 9.15028 1.64685 9.13482 1.62316C9.11353 1.59996 9.09791 1.57641 9.07587 1.55861C9.03361 1.51151 8.99119 1.47054 8.94893 1.43515C8.90591 1.39432 8.85889 1.35893 8.81128 1.32389C8.81128 1.31828 8.80533 1.31828 8.80533 1.31828C8.71498 1.25937 8.62495 1.21206 8.52437 1.17127C8.38105 1.11233 8.25367 1.08895 8.15781 1.07098C8.09918 1.06541 8.04681 1.05945 7.98786 1.05945C7.9825 1.05945 7.97744 1.05945 7.97744 1.05945H7.95111C7.07469 1.05945 6.3584 1.85217 6.3584 2.82168V11.7771C6.64566 11.7788 6.93978 11.7571 7.24405 11.6934Z" fill="#FFB931"/>
<path d="M13.205 9.61616C13.205 9.61616 15.2629 9.02893 17.3869 10.6624C18 11.1944 18.5806 11.5989 18.1665 12.1491C17.9338 12.3879 17.7348 12.6094 17.0047 11.7822C16.2918 11.2493 15.1642 10.4529 13.205 10.772C12.4425 10.9376 11.8778 11.1578 10.8002 12.2771C9.72207 13.3974 8.1122 14.187 6.40341 14.0211C4.69447 13.8551 3.79815 13.1396 2.85251 12.2398C2.65361 11.9472 2.65361 11.6355 2.76969 11.4512C2.88576 11.2683 3.33375 11.084 3.58272 11.3598C3.83137 11.6355 5.00991 12.7365 6.17114 12.8096C7.33252 12.8835 8.49374 12.956 10.0532 11.4329C11.6126 9.91003 12.3928 9.79978 13.205 9.61616Z" fill="#FFB931"/>
<path d="M19.1791 18.3781C19.1791 18.9402 18.7679 19.3961 18.2599 19.3961H2.73754C2.2295 19.3961 1.81747 18.9412 1.81747 18.3781V4.03845H0.477539V19.885C0.477539 20.5333 0.952987 21.0594 1.53941 21.0594H19.459C20.0446 21.0594 20.5204 20.5333 20.5204 19.885V4.03845H19.1798V18.3781H19.1791Z" fill="#FFB931"/>
</g>
<defs>
<clipPath id="clip0">
<rect width="20.0429" height="20" fill="white" transform="translate(0.477539 0.079834)"/>
</clipPath>
</defs>
</svg>
