<svg width="24" height="27" viewBox="0 0 24 27" fill="none" xmlns="http://www.w3.org/2000/svg">
<rect width="24" height="26.5193" fill="white"/>
<path d="M22 23.2044C20.89 23.2044 20.27 22.7956 19.82 22.4973C19.45 22.2542 19.22 22.0995 18.67 22.0995C18.11 22.0995 17.89 22.2431 17.52 22.4973C17.06 22.7956 16.45 23.2044 15.34 23.2044C14.23 23.2044 13.61 22.7956 13.16 22.4973C12.79 22.2542 12.56 22.0995 12.01 22.0995C11.45 22.0995 11.23 22.2431 10.86 22.4973C10.4 22.7956 9.78 23.2044 8.67 23.2044C7.56 23.2044 6.94 22.7956 6.49 22.4973C6.12 22.2431 5.89 22.0995 5.34 22.0995C4.79 22.0995 4.56 22.2431 4.19 22.4973C3.73 22.7956 3.11 23.2044 2 23.2044V20.9945C2.56 20.9945 2.78 20.8508 3.15 20.5967C3.61 20.2984 4.23 19.8895 5.34 19.8895C6.45 19.8895 7.07 20.2984 7.52 20.5967C7.89 20.8508 8.11 20.9945 8.67 20.9945C9.23 20.9945 9.45 20.8508 9.82 20.5967C10.28 20.2984 10.9 19.8895 12.01 19.8895C13.12 19.8895 13.74 20.2984 14.19 20.5967C14.56 20.8398 14.79 20.9945 15.34 20.9945C15.89 20.9945 16.12 20.8508 16.49 20.5967C16.94 20.2984 17.56 19.8895 18.67 19.8895C19.78 19.8895 20.4 20.2984 20.85 20.5967C21.22 20.8508 21.44 20.9945 22 20.9945V23.2044ZM22 18.2321C20.89 18.2321 20.27 17.8232 19.82 17.5249C19.45 17.2818 19.22 17.1271 18.67 17.1271C18.11 17.1271 17.89 17.2707 17.52 17.5249C17.07 17.8232 16.45 18.2321 15.34 18.2321C14.23 18.2321 13.61 17.8232 13.16 17.5249C12.79 17.2818 12.56 17.1271 12.01 17.1271C11.45 17.1271 11.23 17.2707 10.86 17.5249C10.41 17.8232 9.79 18.2321 8.68 18.2321C7.57 18.2321 6.95 17.8232 6.5 17.5249C6.13 17.2818 5.9 17.1271 5.35 17.1271C4.8 17.1271 4.57 17.2707 4.2 17.5249C3.73 17.8232 3.11 18.2321 2 18.2321V16.0221C2.56 16.0221 2.78 15.8785 3.15 15.6243C3.6 15.326 4.22 14.9171 5.33 14.9171C6.44 14.9171 7.06 15.326 7.51 15.6243C7.88 15.8674 8.11 16.0221 8.66 16.0221C9.22 16.0221 9.44 15.8785 9.81 15.6243C10.26 15.326 10.88 14.9171 11.99 14.9171C13.1 14.9171 13.72 15.326 14.17 15.6243C14.54 15.8674 14.77 16.0221 15.32 16.0221C15.87 16.0221 16.1 15.8785 16.47 15.6243C16.92 15.326 17.54 14.9171 18.65 14.9171C19.76 14.9171 20.38 15.326 20.83 15.6243C21.2 15.8674 21.43 16.0221 21.98 16.0221V18.2321H22ZM8.67 13.2597C9.23 13.2597 9.45 13.116 9.82 12.8619C10.28 12.5636 10.9 12.1547 12.01 12.1547C13.12 12.1547 13.74 12.5636 14.19 12.8619C14.56 13.105 14.79 13.2597 15.34 13.2597C15.89 13.2597 16.12 13.116 16.49 12.8619C16.61 12.7845 16.75 12.6961 16.9 12.6078L10.48 5.52488C8.93 3.81217 7.5 3.30388 5 3.31493V6.07736C6.82 6.06631 7.89 6.5083 9 7.73482L10 8.8398L6.75 12.431C7.06 12.5636 7.31 12.7293 7.52 12.8619C7.89 13.116 8.11 13.2597 8.67 13.2597Z" fill="#FFB931"/>
<path d="M16.5 8.8398C17.8807 8.8398 19 7.60302 19 6.07737C19 4.55172 17.8807 3.31494 16.5 3.31494C15.1193 3.31494 14 4.55172 14 6.07737C14 7.60302 15.1193 8.8398 16.5 8.8398Z" fill="#FFB931"/>
</svg>
