<?xml version="1.0" encoding="iso-8859-1"?>
<!-- Generator: Adobe Illustrator 16.0.0, SVG Export Plug-In . SVG Version: 6.00 Build 0)  -->
<!DOCTYPE svg PUBLIC "-//W3C//DTD SVG 1.1//EN" "http://www.w3.org/Graphics/SVG/1.1/DTD/svg11.dtd">
<svg version="1.1" id="Capa_1" xmlns="http://www.w3.org/2000/svg" xmlns:xlink="http://www.w3.org/1999/xlink" x="0px" y="0px"
	 width="573.75px" height="573.75px" viewBox="0 0 573.75 573.75" style="enable-background:new 0 0 573.75 573.75;"
	 xml:space="preserve">
<g>
	<g>
		<path d="M219.938,283.05V0h-76.5v248.625l22.95,70.763C181.688,304.088,200.812,290.7,219.938,283.05z"/>
		<path d="M286.875,286.875c-78.413,0-143.438,65.025-143.438,143.438S208.462,573.75,286.875,573.75
			c78.412,0,143.438-65.025,143.438-143.438S365.287,286.875,286.875,286.875z M344.25,516.375l-57.375-40.162l-53.55,40.162
			l15.3-66.938l-47.812-47.812h66.938l19.125-57.375L306,401.625h66.938l-47.812,47.812L344.25,516.375z"/>
		<path d="M334.688,275.4V0h-95.625v275.4c15.3-3.825,30.6-7.65,47.812-7.65C304.088,267.75,319.388,269.663,334.688,275.4z"/>
		<path d="M353.812,0v283.05c19.125,9.562,38.25,22.95,53.55,38.25l22.95-72.675V0H353.812z"/>
	</g>
</g>
<g>
</g>
<g>
</g>
<g>
</g>
<g>
</g>
<g>
</g>
<g>
</g>
<g>
</g>
<g>
</g>
<g>
</g>
<g>
</g>
<g>
</g>
<g>
</g>
<g>
</g>
<g>
</g>
<g>
</g>
</svg>
