<svg width="35" height="35" viewBox="0 0 35 35" fill="none" xmlns="http://www.w3.org/2000/svg">
<rect width="35" height="35" fill="white"/>
<path d="M17.5 4.37496C12.6679 4.37496 8.7501 8.29289 8.7501 13.125C8.7501 17.5 13.1251 21.9433 13.1251 26.2498H21.8748C21.8748 21.8067 26.2499 17.5 26.2499 13.125C26.2499 8.29289 22.3324 4.37496 17.5 4.37496ZM22.1206 18.6555C21.249 20.3882 20.3581 22.1658 19.9374 24.0626H15.0519C14.6311 22.2234 13.7595 20.4738 12.9071 18.7646C11.8944 16.7289 10.9375 14.8063 10.9375 13.125C10.9375 9.50632 13.8814 6.56248 17.5 6.56248C21.1186 6.56248 24.0626 9.50632 24.0626 13.125C24.0627 14.7871 23.118 16.667 22.1206 18.6555ZM21.8748 31.719C21.8748 32.3233 21.386 32.8125 20.7814 32.8125H20.5805C20.13 34.0856 18.9268 35 17.5001 35C16.073 35 14.8703 34.0856 14.4196 32.8125H14.2187C13.6143 32.8125 13.1251 32.3233 13.1251 31.719C13.1251 31.1144 13.6143 30.6249 14.2187 30.6249H20.7814C21.386 30.6249 21.8748 31.1144 21.8748 31.719ZM21.8748 28.4377C21.8748 29.0424 21.386 29.5311 20.7814 29.5311H14.2187C13.6143 29.5311 13.1251 29.0424 13.1251 28.4377C13.1251 27.833 13.6143 27.3439 14.2187 27.3439H20.7814C21.386 27.3439 21.8748 27.833 21.8748 28.4377ZM6.68002 5.61422L8.64962 6.75255C8.22244 7.34441 7.85291 7.9724 7.54959 8.64317L5.58619 7.51082L6.68002 5.61422ZM17.5 2.18759C17.1241 2.18759 16.7716 2.2603 16.4062 2.29868V0H18.5938V2.29868C18.2286 2.26023 17.876 2.18759 17.5 2.18759ZM11.1275 4.27463L9.98913 2.30502L11.886 1.21105L13.0183 3.17423C12.3474 3.47777 11.7195 3.84738 11.1275 4.27463ZM27.4528 8.64317C27.1491 7.9724 26.7779 7.34441 26.3506 6.75284L28.3201 5.61414L29.4138 7.51118L27.4528 8.64317ZM23.8722 4.27261C23.2826 3.84738 22.6525 3.47777 21.9842 3.1743L23.1163 1.21112L25.0089 2.3051L23.8722 4.27261ZM6.67785 14.2189H4.375V12.0315H6.67367C6.6353 12.3967 6.56259 12.7491 6.56259 13.1251C6.56259 13.4967 6.6353 13.8557 6.67785 14.2189ZM30.6251 12.0314V14.2188H28.3224C28.3648 13.8557 28.4376 13.4967 28.4376 13.125C28.4376 12.7489 28.3648 12.3966 28.3265 12.0313H30.6251V12.0314ZM27.4272 17.5941L29.4138 18.7391L28.32 20.6341L26.5297 19.6003C26.8522 18.9397 27.1514 18.2735 27.4272 17.5941ZM7.56444 17.5982C7.83581 18.2778 8.13495 18.9484 8.45522 19.6107L6.68009 20.6341L5.58626 18.7391L7.56444 17.5982Z" fill="#FFB931"/>
</svg>
