<svg width="36" height="35" viewBox="0 0 36 35" fill="none" xmlns="http://www.w3.org/2000/svg">
<g clip-path="url(#clip0)">
<path d="M4.57415 13.4508C6.35296 13.4508 7.79913 12.0077 7.79913 10.2351C7.79913 8.46236 6.35296 7.01929 4.57415 7.01929C2.79843 7.01929 1.35303 8.46236 1.35303 10.2351C1.35303 12.0077 2.79843 13.4508 4.57415 13.4508Z" fill="#FFB931"/>
<path d="M17.6444 15.0042C20.7209 15.0042 23.2244 12.5066 23.2244 9.43617C23.2244 6.36578 20.7213 3.86963 17.6444 3.86963C14.5685 3.86963 12.0667 6.36578 12.0667 9.43617C12.0667 12.5066 14.5685 15.0042 17.6444 15.0042Z" fill="#FFB900"/>
<path d="M22.3802 15.5696C21.0666 16.5815 19.4277 17.19 17.6443 17.19C15.8813 17.19 14.2613 16.5942 12.9558 15.6042C11.399 16.4619 10.5703 17.7738 10.5703 19.433V29.8627C11.628 30.5665 14.5172 32.2777 17.6451 32.2777C21.7947 32.2777 24.0862 30.6219 24.8277 29.9692V19.4323C24.8277 17.7888 23.9582 16.4357 22.3802 15.5696Z" fill="#FFB900"/>
<path d="M8.78742 14.0143C7.74943 15.1666 6.2466 15.8962 4.57379 15.8962C3.40629 15.8962 2.32051 15.5424 1.41742 14.9362C0.708211 15.3989 0.356689 16.0427 0.356689 16.8962V23.207C2.12817 24.5885 6.32138 25.0362 9.33243 23.1535V18.8427C9.33243 17.7031 9.58528 16.6408 10.0551 15.6847C9.92177 15.1801 9.35325 14.5143 8.78742 14.0143Z" fill="#FFB931"/>
<path d="M30.8615 13.4508C29.0826 13.4508 27.6365 12.0077 27.6365 10.2351C27.6365 8.46236 29.0826 7.01929 30.8615 7.01929C32.6372 7.01929 34.0826 8.46236 34.0826 10.2351C34.0826 12.0077 32.6376 13.4508 30.8615 13.4508Z" fill="#FFB931"/>
<path d="M26.6473 14.0143C27.6861 15.1666 29.1889 15.8962 30.8617 15.8962C32.0292 15.8962 33.115 15.5424 34.0181 14.9362C34.7273 15.3989 35.078 16.0427 35.078 16.8962V23.207C33.3073 24.5885 29.1141 25.0362 26.1031 23.1535V18.8427C26.1031 17.7031 25.8502 16.6408 25.3804 15.6847C25.5133 15.1801 26.0819 14.5143 26.6473 14.0143Z" fill="#FFB931"/>
</g>
<defs>
<clipPath id="clip0">
<rect width="35.0751" height="35" fill="white" transform="translate(0.140869)"/>
</clipPath>
</defs>
</svg>
