<svg width="25" height="39" viewBox="0 0 25 39" fill="none" xmlns="http://www.w3.org/2000/svg">
<path d="M7.28235 19.24V0H0.868652V16.9L2.79276 21.71C4.0755 20.67 5.67885 19.76 7.28235 19.24Z" fill="#FFB931"/>
<path d="M12.8934 19.5C6.31932 19.5 0.867676 23.92 0.867676 29.25C0.867676 34.5801 6.31932 39 12.8934 39C19.4674 39 24.9191 34.58 24.9191 29.25C24.9191 23.9199 19.4674 19.5 12.8934 19.5ZM17.7037 35.1L12.8934 32.37L8.40382 35.1L9.68656 30.55L5.67804 27.3H11.2901L12.8935 23.4L14.4968 27.3H20.1089L16.1003 30.55L17.7037 35.1Z" fill="#FFB931"/>
<path d="M16.9021 18.72V0H8.88501V18.72C10.1678 18.46 11.4505 18.2 12.8935 18.2C14.3367 18.2 15.6194 18.33 16.9021 18.72Z" fill="#FFB931"/>
<path d="M18.5054 0V19.24C20.1088 19.89 21.7122 20.8 22.995 21.84L24.9191 16.9V0H18.5054Z" fill="#FFB931"/>
</svg>
