<svg width="20" height="20" viewBox="0 0 20 20" fill="none" xmlns="http://www.w3.org/2000/svg">
<g clip-path="url(#clip0)">
<path d="M12.9166 4.68571L12.18 4.09902L14.0214 0.329061L14.7579 0.915757L12.9166 4.68571ZM10.4342 -0.826904H9.56581V3.61688H10.4342V-0.826904ZM7.79268 4.09902L5.95135 0.329061L5.21482 0.921566L7.05615 4.69152L7.79268 4.09902ZM20 9.17016L12.9575 11.058C13.0439 11.5054 13.0439 12.0572 13.0439 12.5045C13.0439 16.1698 10.6979 19.1731 7.82451 19.1731C5.39214 19.1731 3.39168 17.0644 2.78245 14.2877C2.5233 14.5085 2.17322 14.7293 1.73676 14.7293C0.781996 14.7293 0 13.7301 0 12.5103C0 11.2904 0.781996 10.2913 1.73676 10.2913C2.17322 10.2913 2.51875 10.512 2.78245 10.7327C3.39168 7.95611 5.39214 5.84749 7.82451 5.84749H8.69289V8.06647H11.3026V5.84749H19.9955V9.17016H20ZM2.60968 12.5045C2.60968 11.8364 2.2596 11.395 1.7413 11.395C1.22301 11.395 0.872926 11.8364 0.872926 12.5045C0.872926 13.1725 1.22301 13.6139 1.7413 13.6139C2.2596 13.6139 2.60968 13.1725 2.60968 12.5045Z" fill="#FFB931"/>
</g>
<defs>
<clipPath id="clip0">
<rect width="20" height="20" fill="white"/>
</clipPath>
</defs>
</svg>
