<svg width="36" height="35" viewBox="0 0 36 35" fill="none" xmlns="http://www.w3.org/2000/svg">
<path d="M32.6462 30.625C31.024 30.625 30.1179 30.0854 29.4602 29.6917C28.9195 29.3708 28.5833 29.1667 27.7795 29.1667C26.9611 29.1667 26.6396 29.3562 26.0989 29.6917C25.4266 30.0854 24.5351 30.625 22.9129 30.625C21.2907 30.625 20.3846 30.0854 19.7269 29.6917C19.1862 29.3708 18.85 29.1667 18.0462 29.1667C17.2278 29.1667 16.9063 29.3562 16.3655 29.6917C15.6933 30.0854 14.7872 30.625 13.1649 30.625C11.5427 30.625 10.6366 30.0854 9.97895 29.6917C9.43821 29.3562 9.10208 29.1667 8.29827 29.1667C7.49447 29.1667 7.15833 29.3562 6.61759 29.6917C5.94532 30.0854 5.03921 30.625 3.41699 30.625V27.7083C4.23541 27.7083 4.55693 27.5187 5.09767 27.1833C5.76994 26.7896 6.67605 26.25 8.29827 26.25C9.92049 26.25 10.8266 26.7896 11.4843 27.1833C12.025 27.5187 12.3465 27.7083 13.1649 27.7083C13.9834 27.7083 14.3049 27.5187 14.8456 27.1833C15.5179 26.7896 16.424 26.25 18.0462 26.25C19.6684 26.25 20.5745 26.7896 21.2322 27.1833C21.7729 27.5042 22.1091 27.7083 22.9129 27.7083C23.7167 27.7083 24.0528 27.5187 24.5936 27.1833C25.2512 26.7896 26.1573 26.25 27.7795 26.25C29.4018 26.25 30.3079 26.7896 30.9655 27.1833C31.5063 27.5187 31.8278 27.7083 32.6462 27.7083V30.625ZM32.6462 24.0625C31.024 24.0625 30.1179 23.5229 29.4602 23.1292C28.9195 22.8083 28.5833 22.6042 27.7795 22.6042C26.9611 22.6042 26.6396 22.7937 26.0989 23.1292C25.4412 23.5229 24.5351 24.0625 22.9129 24.0625C21.2907 24.0625 20.3846 23.5229 19.7269 23.1292C19.1862 22.8083 18.85 22.6042 18.0462 22.6042C17.2278 22.6042 16.9063 22.7937 16.3655 23.1292C15.7079 23.5229 14.8018 24.0625 13.1796 24.0625C11.5573 24.0625 10.6512 23.5229 9.99357 23.1292C9.45283 22.8083 9.11669 22.6042 8.31289 22.6042C7.50908 22.6042 7.17295 22.7937 6.63221 23.1292C5.94532 23.5229 5.03921 24.0625 3.41699 24.0625V21.1458C4.23541 21.1458 4.55693 20.9562 5.09767 20.6208C5.75533 20.2271 6.66144 19.6875 8.28366 19.6875C9.90588 19.6875 10.812 20.2271 11.4696 20.6208C12.0104 20.9417 12.3465 21.1458 13.1503 21.1458C13.9687 21.1458 14.2903 20.9562 14.831 20.6208C15.4887 20.2271 16.3948 19.6875 18.017 19.6875C19.6392 19.6875 20.5453 20.2271 21.203 20.6208C21.7437 20.9417 22.0798 21.1458 22.8836 21.1458C23.6875 21.1458 24.0236 20.9562 24.5643 20.6208C25.222 20.2271 26.1281 19.6875 27.7503 19.6875C29.3725 19.6875 30.2786 20.2271 30.9363 20.6208C31.477 20.9417 31.8132 21.1458 32.617 21.1458V24.0625H32.6462ZM13.1649 17.5C13.9834 17.5 14.3049 17.3104 14.8456 16.975C15.5179 16.5812 16.424 16.0417 18.0462 16.0417C19.6684 16.0417 20.5745 16.5812 21.2322 16.975C21.7729 17.2958 22.1091 17.5 22.9129 17.5C23.7167 17.5 24.0528 17.3104 24.5936 16.975C24.7689 16.8729 24.9735 16.7562 25.1928 16.6396L15.8102 7.29165C13.5449 5.03124 11.455 4.3604 7.80137 4.37499V8.02082C10.4612 8.00624 12.025 8.58957 13.6472 10.2083L15.1087 11.6667L10.3589 16.4062C10.812 16.5812 11.1773 16.8 11.4843 16.975C12.025 17.3104 12.3465 17.5 13.1649 17.5Z" fill="#FFB931"/>
<path d="M24.6082 11.6667C26.6261 11.6667 28.2619 10.0344 28.2619 8.02083C28.2619 6.0073 26.6261 4.375 24.6082 4.375C22.5904 4.375 20.9546 6.0073 20.9546 8.02083C20.9546 10.0344 22.5904 11.6667 24.6082 11.6667Z" fill="#FFB931"/>
</svg>
